<svg version="1" xmlns="http://www.w3.org/2000/svg" width="266.667" height="266.667" viewBox="0 0 200.000000 200.000000"><path d="M24.9 58C18.1 61.5 9.1 71 5.6 78.4c-8.1 17.1-4.6 37.3 8.9 51.5 9.9 10.3 20.2 14.1 39.3 14.1H64v-18h-9.8c-12 0-18.4-1.7-24-6.6-6.4-5.4-9.4-11.3-10-19.5-.4-6.3-.2-7.5 2.7-13.4 3.5-7.1 9-12.4 14.8-14.4 2.2-.8 10.9-1.5 20.6-1.8l16.7-.5V144.1l9.3-.3 9.2-.3.3-44.3L94 55H62.3l-31.8.1-5.6 2.9zM135.3 76.3c-17.7 11.6-32.2 21.4-32.2 21.7 0 .3 15.5 10.7 34.5 23.2l34.6 22.8h12.4c6.8 0 12.4-.3 12.4-.8 0-.4-14.6-10.6-32.5-22.6-17.9-12.1-32.5-22.2-32.5-22.5.1-.3 14-10 31-21.5 17.1-11.5 31-21 31-21.2 0-.2-6-.4-13.2-.4h-13.3l-32.2 21.3z"/></svg>