<svg xmlns="http://www.w3.org/2000/svg" viewBox="0 0 166.1 96.58"><defs><style>.a{fill:#f37321;}</style></defs><title>cloud_orange</title><path class="a" d="M363.92,414.6c-57.2,1.56-78.4,1.56-86.81,1.23-2.22-.09-12.37-.54-26-.25-3.58.08-6.45.19-8,.25h-6c-10.5-3.18-18.13-9.52-22-20a19.69,19.69,0,0,1,0-12c3.61-10.71,8.74-13.61,12.21-15.79,4.54-2.85,10.07-4.31,16.67-4.25.73,0,2.1-2.32,2.12-3.58a41.3,41.3,0,0,1,8.5-24.54c5.83-7.54,14.3-11.7,19.68-13.81a50.65,50.65,0,0,1,7.67-2.21,40.82,40.82,0,0,1,4.15-.22,43.33,43.33,0,0,1,7,.51c.8.12,1.91.34,3.71.73C307.67,323,314,328.23,314,328.23a40.93,40.93,0,0,1,11.29,13.66c1.5,2.85,2.83,4,6.31,3.81,16.64-.88,30.25,14.79,26.8,30.1-.16.74,1,2.54,1.6,2.56,9.4.27,15,5.74,19.11,13.47a11.39,11.39,0,0,1,0,10c-.12.32-.25.63-.38.93C375.83,409.25,369.3,412.72,363.92,414.6Z" transform="translate(-214.17 -319.42)"/></svg>